<svg width="24" height="25" viewBox="0 0 24 25" fill="none" xmlns="http://www.w3.org/2000/svg">
<path d="M9.005 21.5C8.60718 21.5 8.22564 21.342 7.94434 21.0607C7.66304 20.7794 7.505 20.3978 7.505 20C7.505 19.6022 7.66304 19.2206 7.94434 18.9393C8.22564 18.658 8.60718 18.5 9.005 18.5C9.40282 18.5 9.78436 18.658 10.0657 18.9393C10.347 19.2206 10.505 19.6022 10.505 20C10.505 20.3978 10.347 20.7794 10.0657 21.0607C9.78436 21.342 9.40282 21.5 9.005 21.5ZM18 21.5C17.6022 21.5 17.2206 21.342 16.9393 21.0607C16.658 20.7794 16.5 20.3978 16.5 20C16.5 19.6022 16.658 19.2206 16.9393 18.9393C17.2206 18.658 17.6022 18.5 18 18.5C18.3978 18.5 18.7794 18.658 19.0607 18.9393C19.342 19.2206 19.5 19.6022 19.5 20C19.5 20.3978 19.342 20.7794 19.0607 21.0607C18.7794 21.342 18.3978 21.5 18 21.5ZM6.21 7.25L8.084 14.75H18.862L20.114 7.25H6.21ZM5.836 5.75H21.886L20.132 16.25H6.912L3.915 4.25H0.75V2.75H5.087L5.836 5.75Z" fill="white"/>
</svg>
