<svg width="176" height="90" viewBox="0 0 176 90" fill="none" xmlns="http://www.w3.org/2000/svg">
<path fill-rule="evenodd" clip-rule="evenodd" d="M53.1657 75.4144L107.816 48.8882L93.2723 18.5791L38.5481 43.9866L53.1657 75.4144Z" fill="#ADADAD"/>
<path fill-rule="evenodd" clip-rule="evenodd" d="M81.6288 28.7575L49.767 43.6523C51.3082 46.9642 49.8748 50.9025 46.565 52.4497L51.8518 63.8175C55.1626 62.2706 59.0924 63.7009 60.6333 67.0137L92.4954 52.1179C90.9555 48.8054 92.3892 44.8662 95.6978 43.3195L90.4097 31.9524C87.1011 33.4991 83.1691 32.069 81.6288 28.7575Z" stroke="#484848" stroke-width="0.8" stroke-linecap="round"/>
<path fill-rule="evenodd" clip-rule="evenodd" d="M67.3681 39.797C71.8321 37.7099 77.1336 39.6405 79.212 44.1078C81.2904 48.5751 79.3579 53.8875 74.8926 55.9752C70.4312 58.0611 65.1262 56.1313 63.0491 51.6634C60.9716 47.1965 62.9054 41.8835 67.3681 39.797Z" fill="white"/>
<path fill-rule="evenodd" clip-rule="evenodd" d="M68.2403 41.6722C71.6684 40.069 75.7433 41.5511 77.3384 44.9837C78.934 48.4153 77.4486 52.4964 74.0208 54.0987C70.5924 55.7028 66.5179 54.2198 64.9227 50.7872C63.3266 47.3543 64.8123 43.2754 68.2403 41.6722Z" fill="white"/>
<path d="M103.764 51.7308L93.7056 30.1042M93.1335 28.8808L89.991 22.1267M105.093 49.2974L103.92 46.7763M103.325 45.5039L93.5828 24.5588M71.9026 28.394L93.2768 18.4029L104.348 42.2048M68.2403 41.6722C71.6684 40.069 75.7433 41.5511 77.3384 44.9837C78.934 48.4153 77.4486 52.4964 74.0208 54.0987C70.5924 55.7028 66.5179 54.2198 64.9227 50.7872C63.3266 47.3543 64.8123 43.2754 68.2403 41.6722Z" stroke="#484848" stroke-width="0.8" stroke-linecap="round"/>
<path opacity="0.4" d="M35.9388 42.5536L31.3757 40.8928M38.8894 39.622L36.7907 35.1111M32.2703 48.9518L31.6474 49.2422M36.1547 47.1358L33.2066 48.5136" stroke="#AFAFAF" stroke-width="1.2" stroke-linecap="round"/>
<path opacity="0.4" d="M66 77.968H141M63 77.968H60" stroke="#B0B0B0" stroke-width="1.2" stroke-linecap="round"/>
<path d="M128 39.082H73C71.8954 39.082 71 39.9775 71 41.082V76.082C71 77.1866 71.8954 78.082 73 78.082H128C129.105 78.082 130 77.1866 130 76.082V41.082C130 39.9775 129.105 39.082 128 39.082Z" fill="white"/>
<path fill-rule="evenodd" clip-rule="evenodd" d="M120 47.082C120 49.842 117.762 52.082 115 52.082C112.239 52.082 110 49.842 110 47.082C110 44.32 112.239 42.082 115 42.082C117.762 42.082 120 44.32 120 47.082ZM80 45.581C80 46.41 79.328 47.081 78.5 47.081C77.672 47.081 77 46.41 77 45.582C77 44.754 77.672 44.082 78.5 44.082C79.328 44.082 80 44.753 80 45.581ZM84 45.581C84 46.41 83.328 47.081 82.5 47.081C81.672 47.081 81 46.41 81 45.582C81 44.754 81.672 44.082 82.5 44.082C83.328 44.082 84 44.753 84 45.581ZM80 49.581C80 50.41 79.328 51.081 78.5 51.081C77.672 51.081 77 50.41 77 49.581C77 48.754 77.672 48.081 78.5 48.081C79.328 48.081 80 48.754 80 49.581ZM84 49.581C84 50.41 83.328 51.081 82.5 51.081C81.672 51.081 81 50.41 81 49.581C81 48.754 81.672 48.081 82.5 48.081C83.328 48.081 84 48.754 84 49.581Z" fill="#ADADAD"/>
<path opacity="0.4" fill-rule="evenodd" clip-rule="evenodd" d="M75 73.082H97V70.082H75V73.082ZM76 68.082H92V65.082H76V68.082ZM122 52.082C119.239 52.082 117 49.842 117 47.082C117 44.32 119.239 42.082 122 42.082C124.762 42.082 127 44.32 127 47.082C127 49.842 124.762 52.082 122 52.082Z" fill="#B0B0B0"/>
<path d="M96 78.082H72.673C71.753 78.082 71 77.187 71 76.082M100 77.968H123M128.052 39.082C129.246 39.082 130 39.743 130 40.66V76.336C130 77.254 129.194 78.081 128 78.081M86 59.582C86 60.41 85.517 61.082 84.921 61.082H77.079C76.483 61.082 76 60.41 76 59.582C76 58.754 76.483 58.082 77.079 58.082H84.921C85.517 58.082 86 58.754 86 59.582ZM89 59.581C89 58.753 89.483 58.081 90.079 58.081H97.921C98.517 58.081 99 58.753 99 59.581C99 60.411 98.517 61.081 97.92 61.081H90.08C89.484 61.081 89 60.411 89 59.581ZM111 59.582C111 60.41 110.517 61.082 109.921 61.082H102.078C101.483 61.082 101 60.41 101 59.582C101 58.754 101.483 58.082 102.078 58.082H109.921C110.517 58.082 111 58.754 111 59.582ZM115 59.581C115 58.753 115.483 58.081 116.079 58.081H123.921C124.517 58.081 125 58.753 125 59.581C125 60.411 124.517 61.081 123.921 61.081H116.08C115.484 61.081 115 60.411 115 59.581Z" stroke="#484848" stroke-width="0.8" stroke-linecap="round"/>
<path d="M72.797 78.082C71.881 78.082 71 77.204 71 76.285V40.563C71 39.644 71.815 39.082 72.731 39.082H117" stroke="#484848" stroke-width="0.8" stroke-linecap="round"/>
</svg>
