<svg width="28" height="28" viewBox="0 0 28 28" fill="none" xmlns="http://www.w3.org/2000/svg">
<path d="M24.1033 8.16666L25.4917 6.77833C25.5752 6.70928 25.6364 6.61701 25.6676 6.51319C25.6987 6.40936 25.6984 6.29863 25.6667 6.19499C25.6201 6.08079 25.5386 5.98427 25.4338 5.91929C25.329 5.85431 25.2063 5.82421 25.0833 5.83333H22.1667V2.91666C22.1758 2.79368 22.1457 2.67098 22.0807 2.56617C22.0157 2.46137 21.9192 2.37985 21.805 2.33333C21.6995 2.28742 21.5825 2.27511 21.4697 2.29807C21.357 2.32103 21.2541 2.37815 21.175 2.46166L19.8333 3.89666C18.0622 2.8669 16.0488 2.32731 14 2.33333C11.4129 2.32436 8.89534 3.17045 6.83875 4.74004C4.78217 6.30963 3.30182 8.51475 2.62788 11.0125C1.95394 13.5103 2.12418 16.1608 3.11213 18.5519C4.10008 20.9429 5.85038 22.9405 8.09086 24.2341C10.3314 25.5277 12.9365 26.0447 15.5012 25.7049C18.0659 25.365 20.4464 24.1873 22.2726 22.3548C24.0988 20.5223 25.2684 18.1377 25.5995 15.5719C25.9306 13.006 25.4046 10.4027 24.1033 8.16666ZM21.5833 6.99999H23.6717L21.3383 9.33333H18.6667V6.66166L21 4.32833V6.41666C21 6.57137 21.0615 6.71974 21.1709 6.82914C21.2802 6.93853 21.4286 6.99999 21.5833 6.99999ZM21 14C21.0042 15.5417 20.4992 17.0417 19.5635 18.2671C18.6279 19.4924 17.3138 20.3746 15.8254 20.7767C14.337 21.1787 12.7575 21.0781 11.3321 20.4905C9.90676 19.9029 8.71525 18.8612 7.94257 17.527C7.1699 16.1929 6.8593 14.641 7.05899 13.1122C7.25868 11.5834 7.95749 10.1634 9.04693 9.07246C10.1364 7.98154 11.5555 7.28081 13.084 7.07905C14.6125 6.87729 16.1648 7.18579 17.5 7.95666V9.67166L16.8467 10.325C15.9087 9.59771 14.7289 9.25515 13.5473 9.367C12.3657 9.47885 11.2711 10.0367 10.4863 10.9271C9.70148 11.8175 9.2854 12.9734 9.32274 14.1597C9.36007 15.346 9.84801 16.4735 10.6873 17.3127C11.5265 18.152 12.654 18.6399 13.8403 18.6773C15.0266 18.7146 16.1825 18.2985 17.0729 17.5137C17.9633 16.7289 18.5211 15.6343 18.633 14.4527C18.7448 13.2711 18.4023 12.0913 17.675 11.1533L18.3283 10.5H20.0433C20.6643 11.5623 20.9943 12.7695 21 14ZM17.5 14C17.5 14.6922 17.2947 15.3689 16.9101 15.9445C16.5256 16.5201 15.9789 16.9687 15.3394 17.2336C14.6998 17.4985 13.9961 17.5678 13.3172 17.4327C12.6382 17.2977 12.0146 16.9644 11.5251 16.4749C11.0356 15.9854 10.7023 15.3617 10.5672 14.6828C10.4322 14.0039 10.5015 13.3001 10.7664 12.6606C11.0313 12.0211 11.4799 11.4744 12.0555 11.0898C12.6311 10.7053 13.3078 10.5 14 10.5C14.7242 10.5037 15.4293 10.732 16.0183 11.1533L13.5917 13.5917C13.5359 13.644 13.4914 13.7073 13.461 13.7775C13.4306 13.8477 13.4149 13.9235 13.4149 14C13.4149 14.0765 13.4306 14.1522 13.461 14.2225C13.4914 14.2927 13.5359 14.356 13.5917 14.4083C13.644 14.4641 13.7073 14.5086 13.7775 14.539C13.8478 14.5694 13.9235 14.5851 14 14.5851C14.0765 14.5851 14.1522 14.5694 14.2225 14.539C14.2927 14.5086 14.356 14.4641 14.4083 14.4083L16.8467 11.9817C17.268 12.5706 17.4963 13.2758 17.5 14ZM14 24.5C12.4014 24.5064 10.8225 24.1477 9.38356 23.4513C7.94465 22.7548 6.68375 21.739 5.69699 20.4813C4.71024 19.2236 4.02369 17.7572 3.68968 16.1939C3.35568 14.6306 3.38304 13.0117 3.76968 11.4605C4.15631 9.9094 4.89202 8.46703 5.92071 7.24338C6.9494 6.01974 8.2439 5.04713 9.70553 4.39971C11.1672 3.7523 12.7573 3.44716 14.3548 3.50758C15.9522 3.56799 17.5148 3.99236 18.9233 4.74833L17.675 6.00833C17.619 6.06041 17.5744 6.12365 17.5443 6.19398C17.5142 6.2643 17.4991 6.34015 17.5 6.41666V6.62666C15.7612 5.80083 13.7865 5.61576 11.9245 6.10411C10.0626 6.59247 8.43293 7.72285 7.32325 9.29578C6.21357 10.8687 5.69518 12.7831 5.85956 14.701C6.02394 16.6189 6.86053 18.4171 8.22169 19.7783C9.58284 21.1395 11.3811 21.976 13.299 22.1404C15.2169 22.3048 17.1313 21.7864 18.7042 20.6767C20.2771 19.5671 21.4075 17.9374 21.8959 16.0754C22.3842 14.2135 22.1992 12.2388 21.3733 10.5H21.5833C21.6598 10.5009 21.7357 10.4858 21.806 10.4557C21.8763 10.4256 21.9396 10.381 21.9917 10.325L23.2517 9.07666C24.1002 10.675 24.5212 12.4655 24.4739 14.2744C24.4266 16.0834 23.9126 17.8494 22.9818 19.4012C22.0509 20.953 20.7348 22.2379 19.1611 23.1313C17.5874 24.0246 15.8096 24.4961 14 24.5Z" fill="#0072B7"/>
</svg>
