<svg width="28" height="28" viewBox="0 0 28 28" fill="none" xmlns="http://www.w3.org/2000/svg">
<path d="M25.4916 24.675L17.3249 16.5083C17.2725 16.4525 17.2093 16.408 17.1391 16.3776C17.0688 16.3472 16.9931 16.3315 16.9166 16.3315C16.8401 16.3315 16.7643 16.3472 16.6941 16.3776C16.6239 16.408 16.5606 16.4525 16.5083 16.5083L14.5833 18.4216L9.33325 13.1716V10.5H12.8333V11.6666C12.8333 11.8214 12.8947 11.9697 13.0041 12.0791C13.1135 12.1885 13.2619 12.25 13.4166 12.25H20.4166C20.5242 12.2487 20.6295 12.2189 20.7217 12.1636C20.814 12.1082 20.8899 12.0293 20.9416 11.935C20.9875 11.838 21.0063 11.7304 20.996 11.6236C20.9857 11.5168 20.9468 11.4148 20.8833 11.3283L18.8066 8.45831L20.8833 5.58831C20.9564 5.50756 21.0059 5.40828 21.0265 5.30131C21.0471 5.19433 21.0379 5.08376 20.9999 4.98165C20.9437 4.87821 20.8587 4.79335 20.7551 4.73742C20.6515 4.68149 20.5339 4.6569 20.4166 4.66665H16.3333V2.91665C16.3333 2.76194 16.2718 2.61356 16.1624 2.50417C16.053 2.39477 15.9046 2.33331 15.7499 2.33331H8.74992C8.59521 2.33331 8.44684 2.39477 8.33744 2.50417C8.22804 2.61356 8.16659 2.76194 8.16659 2.91665V13.1716L2.84659 18.4916C2.52044 18.8209 2.33618 19.2648 2.33325 19.7283V23.9166C2.33325 24.3808 2.51763 24.8259 2.84582 25.1541C3.174 25.4823 3.61912 25.6666 4.08325 25.6666H25.0833C25.1984 25.6661 25.3108 25.6314 25.4063 25.5671C25.5018 25.5027 25.5762 25.4115 25.6199 25.305C25.6676 25.1998 25.6808 25.0823 25.6578 24.9692C25.6347 24.8561 25.5766 24.7531 25.4916 24.675ZM19.2733 5.83331L17.6166 8.16665C17.5428 8.264 17.5028 8.38281 17.5028 8.50498C17.5028 8.62715 17.5428 8.74596 17.6166 8.84331L19.2733 11.1766H13.9999V10.5H15.7499C15.9046 10.5 16.053 10.4385 16.1624 10.3291C16.2718 10.2197 16.3333 10.0714 16.3333 9.91665V5.83331H19.2733ZM15.1666 9.33331H9.33325V3.49998H15.1666V9.33331ZM4.08325 24.5C3.92854 24.5 3.78017 24.4385 3.67077 24.3291C3.56138 24.2197 3.49992 24.0714 3.49992 23.9166V19.7283C3.49899 19.6518 3.51407 19.576 3.54421 19.5056C3.57435 19.4353 3.61888 19.3721 3.67492 19.32L8.74992 14.245L14.1749 19.6583L19.0049 24.5H4.08325ZM20.6616 24.5L15.4116 19.25L16.9166 17.745L23.6716 24.5H20.6616Z" fill="#0072B7"/>
</svg>
