<svg width="28" height="28" viewBox="0 0 28 28" fill="none" xmlns="http://www.w3.org/2000/svg">
<path d="M22.5633 8.90165C21.9333 7.47831 21.3266 6.13665 20.9999 5.06331C20.7433 4.38665 20.0549 2.33331 18.0833 2.33331C17.5896 2.3337 17.1042 2.46041 16.6733 2.70138C16.2424 2.94235 15.8804 3.28956 15.6216 3.70998C14.555 3.45908 13.4448 3.45908 12.3783 3.70998C12.1187 3.29032 11.7564 2.94371 11.3257 2.70285C10.895 2.46199 10.4101 2.33481 9.9166 2.33331C8.36493 2.33331 7.7466 3.60498 7.1866 4.72498L7.05827 4.99331C5.8916 7.32665 2.3916 14.4433 2.3916 18.8533V20.4166C2.3916 21.809 2.94473 23.1444 3.92929 24.129C4.91386 25.1135 6.24921 25.6666 7.6416 25.6666C9.03399 25.6666 10.3693 25.1135 11.3539 24.129C12.3385 23.1444 12.8916 21.809 12.8916 20.4166V14H15.2249V20.4166C15.2249 21.809 15.7781 23.1444 16.7626 24.129C17.7472 25.1135 19.0825 25.6666 20.4749 25.6666C21.8673 25.6666 23.2027 25.1135 24.1872 24.129C25.1718 23.1444 25.7249 21.809 25.7249 20.4166V18.8533C25.6666 15.8316 24.0216 12.145 22.5633 8.90165ZM7.58327 24.5C6.81928 24.5 6.07061 24.2857 5.42236 23.8814C4.7741 23.4772 4.25226 22.8991 3.91615 22.2131C3.58004 21.527 3.44315 20.7604 3.52104 20.0004C3.59892 19.2404 3.88845 18.5175 4.35673 17.9138C4.82501 17.3102 5.45324 16.85 6.17002 16.5856C6.8868 16.3212 7.66337 16.2632 8.41147 16.4182C9.15957 16.5732 9.84918 16.935 10.4019 17.4624C10.9547 17.9898 11.3484 18.6616 11.5383 19.4016C11.6247 19.733 11.6678 20.0742 11.6666 20.4166C11.6666 21.4996 11.2364 22.5382 10.4706 23.304C9.70485 24.0698 8.66624 24.5 7.58327 24.5ZM11.6666 17.1266C11.2156 16.5688 10.6559 16.1084 10.0216 15.7733C8.99234 15.235 7.81228 15.0574 6.67017 15.2689C5.52805 15.4804 4.48985 16.0688 3.7216 16.94C4.69295 12.9496 6.18756 9.10522 8.1666 5.50665L8.29494 5.23831C8.77327 4.16498 9.13493 3.49998 9.9166 3.49998C10.3807 3.49998 10.8258 3.68435 11.154 4.01254C11.4822 4.34073 11.6666 4.78585 11.6666 5.24998V17.1266ZM15.1666 12.8333H12.8333V10.6283C13.6037 10.4767 14.3962 10.4767 15.1666 10.6283V12.8333ZM15.1666 5.24998V9.43831C14.3941 9.30994 13.6057 9.30994 12.8333 9.43831V5.24998C12.8447 5.10242 12.8447 4.9542 12.8333 4.80665C13.6339 4.64322 14.4593 4.64322 15.2599 4.80665C15.2171 4.95172 15.1859 5.09997 15.1666 5.24998ZM16.3333 5.24998C16.3333 4.78585 16.5176 4.34073 16.8458 4.01254C17.174 3.68435 17.6191 3.49998 18.0833 3.49998C18.6083 3.49998 19.2499 3.72165 19.8683 5.43665C20.2416 6.60331 20.8483 7.93331 21.5016 9.37998C22.6786 11.7789 23.6051 14.2927 24.2666 16.8816C23.7603 16.3194 23.1369 15.8748 22.4403 15.5793C21.7437 15.2838 20.9908 15.1445 20.2346 15.1712C19.4784 15.1979 18.7373 15.3899 18.0632 15.7338C17.3892 16.0777 16.7987 16.5651 16.3333 17.1616V5.24998ZM20.4166 24.5C19.609 24.5 18.8195 24.2605 18.148 23.8118C17.4765 23.3631 16.9532 22.7254 16.6441 21.9793C16.335 21.2331 16.2542 20.4121 16.4117 19.62C16.5693 18.8279 16.9582 18.1004 17.5292 17.5293C18.1003 16.9582 18.8279 16.5693 19.62 16.4118C20.4121 16.2542 21.2331 16.3351 21.9792 16.6441C22.7254 16.9532 23.3631 17.4766 23.8118 18.1481C24.2605 18.8196 24.4999 19.609 24.4999 20.4166C24.4999 21.4996 24.0697 22.5382 23.304 23.304C22.5382 24.0698 21.4996 24.5 20.4166 24.5Z" fill="#0072B7"/>
<path d="M20.4167 17.5C19.8398 17.5 19.2759 17.6711 18.7963 17.9915C18.3166 18.312 17.9428 18.7676 17.722 19.3005C17.5013 19.8335 17.4435 20.4199 17.556 20.9857C17.6686 21.5515 17.9464 22.0712 18.3543 22.4791C18.7622 22.887 19.2819 23.1648 19.8477 23.2773C20.4134 23.3898 20.9999 23.3321 21.5328 23.1113C22.0658 22.8906 22.5213 22.5167 22.8418 22.0371C23.1623 21.5574 23.3333 20.9935 23.3333 20.4167C23.3333 19.6431 23.026 18.9013 22.4791 18.3543C21.9321 17.8073 21.1902 17.5 20.4167 17.5ZM20.4167 22.1667C20.0706 22.1667 19.7322 22.064 19.4444 21.8717C19.1566 21.6794 18.9323 21.4061 18.7999 21.0864C18.6674 20.7666 18.6328 20.4147 18.7003 20.0753C18.7678 19.7358 18.9345 19.424 19.1792 19.1792C19.424 18.9345 19.7358 18.7678 20.0753 18.7003C20.4147 18.6328 20.7666 18.6674 21.0864 18.7999C21.4061 18.9323 21.6794 19.1566 21.8717 19.4444C22.064 19.7322 22.1667 20.0705 22.1667 20.4167C22.1667 20.8808 21.9823 21.3259 21.6541 21.6541C21.3259 21.9823 20.8808 22.1667 20.4167 22.1667Z" fill="#0072B7"/>
<path d="M7.58317 17.5C7.00631 17.5 6.4424 17.6711 5.96276 17.9915C5.48312 18.312 5.10928 18.7676 4.88852 19.3005C4.66777 19.8335 4.61001 20.4199 4.72255 20.9857C4.83509 21.5515 5.11287 22.0712 5.52078 22.4791C5.92868 22.887 6.44838 23.1648 7.01416 23.2773C7.57994 23.3898 8.16638 23.3321 8.69933 23.1113C9.23228 22.8906 9.6878 22.5167 10.0083 22.0371C10.3288 21.5574 10.4998 20.9935 10.4998 20.4167C10.4998 19.6431 10.1925 18.9013 9.64557 18.3543C9.09859 17.8073 8.35672 17.5 7.58317 17.5ZM7.58317 22.1667C7.23705 22.1667 6.89871 22.064 6.61092 21.8717C6.32314 21.6794 6.09884 21.4061 5.96638 21.0864C5.83393 20.7666 5.79927 20.4147 5.8668 20.0753C5.93432 19.7358 6.10099 19.424 6.34573 19.1792C6.59048 18.9345 6.9023 18.7678 7.24176 18.7003C7.58123 18.6328 7.9331 18.6674 8.25287 18.7999C8.57264 18.9323 8.84595 19.1566 9.03824 19.4444C9.23054 19.7322 9.33317 20.0705 9.33317 20.4167C9.33317 20.8808 9.1488 21.3259 8.82061 21.6541C8.49242 21.9823 8.0473 22.1667 7.58317 22.1667Z" fill="#0072B7"/>
</svg>
