<svg width="42" height="50" viewBox="0 0 42 50" fill="none" xmlns="http://www.w3.org/2000/svg">
<path fill-rule="evenodd" clip-rule="evenodd" d="M24.9847 26.5439C24.5081 26.5439 23.5907 28.3248 23.0397 28.3248C22.8962 28.3188 22.7569 28.2746 22.6362 28.1967C21.6086 27.6817 20.7092 27.1499 19.8648 26.3428C19.1665 25.6816 18.3965 24.6899 17.9942 23.8277C17.9387 23.746 17.9063 23.6508 17.9007 23.5522C17.9007 23.1294 19.1691 22.3414 19.1691 21.6431C19.1691 21.4599 18.2338 18.9653 18.1031 18.6514C17.9199 18.1748 17.8289 18.0274 17.3343 18.0274C17.0947 18.0274 16.8731 17.9723 16.6553 17.9723C16.2683 17.9723 15.9762 18.1197 15.6995 18.3759C14.818 19.2023 14.3772 20.0646 14.3413 21.2767V21.4228C14.3221 22.6912 14.9461 23.9558 15.6444 24.9846C17.2203 27.3165 18.8552 29.3537 21.4792 30.5452C22.2684 30.913 24.0865 31.683 24.9668 31.683C26.0135 31.683 27.7214 31.0232 28.1417 29.9943C28.3082 29.5715 28.4543 29.059 28.4543 28.6003C28.4543 28.526 28.4543 28.4158 28.4159 28.3248C28.2878 28.1045 25.2973 26.5439 24.9847 26.5439ZM21.2588 36.2724C19.0205 36.2724 16.8001 35.5934 14.9269 34.3634L10.4848 35.7753L11.9352 31.4998C10.5044 29.5381 9.73276 27.1731 9.73141 24.745C9.73141 18.3964 14.9077 13.2202 21.2588 13.2202C27.61 13.2202 32.7875 18.3952 32.7875 24.7438C32.7875 31.0962 27.6112 36.2724 21.2588 36.2724ZM21.2588 10.9062C13.6226 10.9062 7.42131 17.1101 7.42131 24.7438C7.42131 27.2601 8.10037 29.7381 9.40212 31.8854L6.90625 39.3193L14.5604 36.8593C16.668 38.0227 19.0425 38.6166 21.4497 38.5823C23.8568 38.548 26.2134 37.8867 28.287 36.6637C30.3606 35.4406 32.0794 33.6981 33.274 31.608C34.4685 29.5179 35.0975 27.1524 35.0989 24.745C35.0989 17.1113 28.8951 10.9062 21.2588 10.9062Z" fill="white"/>
</svg>
