<svg width="25" height="25" viewBox="0 0 25 25" fill="none" xmlns="http://www.w3.org/2000/svg">
<g clip-path="url(#clip0_1_201)">
<path d="M24.64 12.4198C24.6365 10.1275 23.9766 7.88423 22.7382 5.95524C21.4999 4.02625 19.7349 2.49231 17.6522 1.53487C15.5694 0.577432 13.256 0.23656 10.9857 0.552579C8.71528 0.868598 6.58291 1.82828 4.8408 3.31811C3.0987 4.80794 1.81976 6.76556 1.15527 8.95941C0.490778 11.1533 0.468549 13.4915 1.09121 15.6976C1.71387 17.9037 2.95536 19.8853 4.66883 21.408C6.3823 22.9306 8.49604 23.9307 10.76 24.2898V15.8998H7.76V12.4198H10.76V9.78981C10.76 6.78981 12.55 5.11981 15.29 5.11981C16.1881 5.13284 17.0839 5.21306 17.97 5.35981V8.30981H16.46C16.199 8.26738 15.9318 8.28533 15.6789 8.36228C15.4259 8.43923 15.194 8.57314 15.0008 8.75371C14.8077 8.93429 14.6585 9.15673 14.5648 9.40395C14.471 9.65116 14.4352 9.91658 14.46 10.1798V12.4198H17.78L17.25 15.8898H14.51V24.2798C17.3347 23.8342 19.9074 22.3945 21.7646 20.2201C23.6219 18.0456 24.6416 15.2794 24.64 12.4198Z" fill="white"/>
</g>
<defs>
<clipPath id="clip0_1_201">
<rect width="24" height="24" fill="white" transform="translate(0.640015 0.419922)"/>
</clipPath>
</defs>
</svg>
