<svg xmlns="http://www.w3.org/2000/svg" version="1.1" xmlns:xlink="http://www.w3.org/1999/xlink" xmlns:svgjs="http://svgjs.com/svgjs" width="800" height="800"><svg width="800" height="800" viewBox="0 0 800 800" fill="none" xmlns="http://www.w3.org/2000/svg">
<g clip-path="url(#clip0_13_2)">
<path d="M400 800C620.914 800 800 620.914 800 400C800 179.086 620.914 0 400 0C179.086 0 0 179.086 0 400C0 620.914 179.086 800 400 800Z" fill="#0072B7"></path>
<path d="M189.352 465.391C172.898 476.328 178.414 497.203 213.484 507.078C250.211 519.308 289.382 522.321 327.547 515.852C329.742 515.852 331.938 514.758 333.016 514.758V477.453L295.719 489.523C281.461 493.914 267.195 494.992 252.937 491.719C242 488.43 244.164 481.844 257.328 476.359L333.063 450V409.375L227.75 445.578C214.014 450.183 201.064 456.865 189.352 465.391ZM443.859 300.836V407.25C488.836 429.187 523.945 407.25 523.945 350.219C523.945 292.078 503.102 265.75 442.766 244.906C410.953 233.969 378.039 224.062 345.109 217.484V534.5L421.898 557.539V290.961C421.898 278.891 421.898 270.117 430.672 273.406C442.766 276.703 443.859 288.766 443.859 300.836ZM586.477 440.156C554.664 429.219 520.656 424.797 487.742 428.086C470.188 429.18 453.734 433.555 438.375 439.023L435.086 440.117V482.898L506.391 456.57C520.648 452.18 534.914 451.102 549.172 454.375C560.109 457.664 557.945 464.25 544.781 469.734L435.078 510.359V552.047L586.477 496.094C597.414 491.703 607.32 486.219 616.094 477.445C623.773 466.484 620.484 451.125 586.477 440.156Z" fill="white"></path>
</g>
<defs>
<clipPath id="SvgjsClipPath1000">
<rect width="800" height="800" fill="white"></rect>
</clipPath>
</defs>
</svg><style>@media (prefers-color-scheme: light) { :root { filter: none; } }
</style></svg>