<svg width="24" height="25" viewBox="0 0 24 25" fill="none" xmlns="http://www.w3.org/2000/svg">
<g clip-path="url(#clip0_1_203)">
<path d="M12 2.58292C15.204 2.58292 15.584 2.59492 16.85 2.65292C20.102 2.80092 21.621 4.34392 21.769 7.57192C21.827 8.83692 21.838 9.21692 21.838 12.4209C21.838 15.6259 21.826 16.0049 21.769 17.2699C21.62 20.4949 20.105 22.0409 16.85 22.1889C15.584 22.2469 15.206 22.2589 12 22.2589C8.796 22.2589 8.416 22.2469 7.151 22.1889C3.891 22.0399 2.38 20.4899 2.232 17.2689C2.174 16.0039 2.162 15.6249 2.162 12.4199C2.162 9.21592 2.175 8.83692 2.232 7.57092C2.381 4.34392 3.896 2.79992 7.151 2.65192C8.417 2.59492 8.796 2.58292 12 2.58292ZM12 0.419922C8.741 0.419922 8.333 0.433922 7.053 0.491922C2.695 0.691922 0.273 3.10992 0.073 7.47192C0.014 8.75292 0 9.16092 0 12.4199C0 15.6789 0.014 16.0879 0.072 17.3679C0.272 21.7259 2.69 24.1479 7.052 24.3479C8.333 24.4059 8.741 24.4199 12 24.4199C15.259 24.4199 15.668 24.4059 16.948 24.3479C21.302 24.1479 23.73 21.7299 23.927 17.3679C23.986 16.0879 24 15.6789 24 12.4199C24 9.16092 23.986 8.75292 23.928 7.47292C23.732 3.11892 21.311 0.692922 16.949 0.492922C15.668 0.433922 15.259 0.419922 12 0.419922ZM12 6.25792C8.597 6.25792 5.838 9.01692 5.838 12.4199C5.838 15.8229 8.597 18.5829 12 18.5829C15.403 18.5829 18.162 15.8239 18.162 12.4199C18.162 9.01692 15.403 6.25792 12 6.25792ZM12 16.4199C9.791 16.4199 8 14.6299 8 12.4199C8 10.2109 9.791 8.41992 12 8.41992C14.209 8.41992 16 10.2109 16 12.4199C16 14.6299 14.209 16.4199 12 16.4199ZM18.406 4.57492C17.61 4.57492 16.965 5.21992 16.965 6.01492C16.965 6.80992 17.61 7.45492 18.406 7.45492C19.201 7.45492 19.845 6.80992 19.845 6.01492C19.845 5.21992 19.201 4.57492 18.406 4.57492Z" fill="white"/>
</g>
<defs>
<clipPath id="clip0_1_203">
<rect width="24" height="24" fill="white" transform="translate(0 0.419922)"/>
</clipPath>
</defs>
</svg>
