<svg width="67" height="23" viewBox="0 0 67 23" fill="none" xmlns="http://www.w3.org/2000/svg">
<path d="M5.48182 0C6.00067 0 6.43493 0.173105 6.78459 0.519316C7.13426 0.865527 7.30909 1.2955 7.30909 1.80923V12.0615C7.30909 12.5753 7.13426 13.0052 6.78459 13.3514C6.43493 13.6977 6.00067 13.8708 5.48182 13.8708H0.609091C1.12795 13.8708 1.5622 14.0439 1.91187 14.3901C2.26153 14.7363 2.43636 15.1663 2.43636 15.68V21.7108C2.43636 21.8895 2.37997 22.0346 2.26717 22.1463C2.15438 22.258 2.00774 22.3138 1.82727 22.3138H0.609091C0.428619 22.3138 0.281986 22.258 0.169192 22.1463C0.0563972 22.0346 0 21.8895 0 21.7108V0.603077C0 0.424388 0.0563972 0.279203 0.169192 0.167522C0.281986 0.0558411 0.428619 0 0.609091 0H5.48182ZM4.87273 3.01538C4.87273 2.83669 4.81633 2.69151 4.70353 2.57983C4.59074 2.46815 4.44411 2.41231 4.26364 2.41231H0.609091C1.12795 2.41231 1.5622 2.58541 1.91187 2.93162C2.26153 3.27783 2.43636 3.70781 2.43636 4.22154V10.8554C2.43636 11.0341 2.49276 11.1793 2.60555 11.2909C2.71835 11.4026 2.86498 11.4585 3.04545 11.4585H4.26364C4.44411 11.4585 4.59074 11.4026 4.70353 11.2909C4.81633 11.1793 4.87273 11.0341 4.87273 10.8554V3.01538ZM14.6182 0C15.137 0 15.5713 0.173105 15.921 0.519316C16.2706 0.865527 16.4454 1.2955 16.4454 1.80923V4.22154C16.4454 4.40023 16.3891 4.54541 16.2763 4.65709C16.1635 4.76877 16.0168 4.82462 15.8364 4.82462H14.6182C14.4377 4.82462 14.2911 4.76877 14.1783 4.65709C14.0655 4.54541 14.0091 4.40023 14.0091 4.22154V3.01538C14.0091 2.83669 13.9527 2.69151 13.8399 2.57983C13.7271 2.46815 13.5805 2.41231 13.4 2.41231H9.74545C10.2643 2.41231 10.6986 2.58541 11.0482 2.93162C11.3979 3.27783 11.5727 3.70781 11.5727 4.22154V8.44308C11.5727 8.62177 11.6291 8.76695 11.7419 8.87863C11.8547 8.99031 12.0013 9.04615 12.1818 9.04615H14.6182C15.137 9.04615 15.5713 9.21926 15.921 9.56547C16.2706 9.91168 16.4454 10.3417 16.4454 10.8554V20.5046C16.4454 21.0183 16.2706 21.4483 15.921 21.7945C15.5713 22.1407 15.137 22.3138 14.6182 22.3138H10.9636C10.4448 22.3138 10.0105 22.1407 9.66086 21.7945C9.31119 21.4483 9.13636 21.0183 9.13636 20.5046V18.0923C9.13636 17.9136 9.19276 17.7684 9.30555 17.6567C9.41835 17.5451 9.56498 17.4892 9.74545 17.4892H10.9636C11.1441 17.4892 11.2907 17.5451 11.4035 17.6567C11.5163 17.7684 11.5727 17.9136 11.5727 18.0923V19.2985C11.5727 19.4771 11.6291 19.6223 11.7419 19.734C11.8547 19.8457 12.0013 19.9015 12.1818 19.9015H13.4C13.5805 19.9015 13.7271 19.8457 13.8399 19.734C13.9527 19.6223 14.0091 19.4771 14.0091 19.2985V12.0615C14.0091 11.8828 13.9527 11.7377 13.8399 11.626C13.7271 11.5143 13.5805 11.4585 13.4 11.4585H10.9636C10.4448 11.4585 10.0105 11.2854 9.66086 10.9391C9.31119 10.5929 9.13636 10.163 9.13636 9.64923V1.80923C9.13636 1.2955 9.31119 0.865527 9.66086 0.519316C10.0105 0.173105 10.4448 0 10.9636 0H14.6182ZM18.2727 1.80923C18.2727 1.2955 18.4476 0.865527 18.7972 0.519316C19.1469 0.173105 19.5811 0 20.1 0H23.7545C24.2734 0 24.7077 0.173105 25.0573 0.519316C25.407 0.865527 25.5818 1.2955 25.5818 1.80923V4.22154C25.5818 4.40023 25.5254 4.54541 25.4126 4.65709C25.2998 4.76877 25.1532 4.82462 24.9727 4.82462H23.7545C23.5741 4.82462 23.4274 4.76877 23.3146 4.65709C23.2018 4.54541 23.1454 4.40023 23.1454 4.22154V3.01538C23.1454 2.83669 23.0891 2.69151 22.9763 2.57983C22.8635 2.46815 22.7168 2.41231 22.5364 2.41231H18.8818C19.4007 2.41231 19.8349 2.58541 20.1846 2.93162C20.5343 3.27783 20.7091 3.70781 20.7091 4.22154V19.2985C20.7091 19.4771 20.7655 19.6223 20.8783 19.734C20.9911 19.8457 21.1377 19.9015 21.3182 19.9015H22.5364C22.7168 19.9015 22.8635 19.8457 22.9763 19.734C23.0891 19.6223 23.1454 19.4771 23.1454 19.2985V14.4738C23.1454 14.2952 23.0891 14.15 22.9763 14.0383C22.8635 13.9266 22.7168 13.8708 22.5364 13.8708C22.3559 13.8708 22.2093 13.8149 22.0965 13.7032C21.9837 13.5916 21.9273 13.4464 21.9273 13.2677V12.0615C21.9273 11.8828 21.9837 11.7377 22.0965 11.626C22.2093 11.5143 22.3559 11.4585 22.5364 11.4585H23.7545C24.2734 11.4585 24.7077 11.6316 25.0573 11.9778C25.407 12.324 25.5818 12.754 25.5818 13.2677V20.5046C25.5818 21.0183 25.407 21.4483 25.0573 21.7945C24.7077 22.1407 24.2734 22.3138 23.7545 22.3138H20.1C19.5811 22.3138 19.1469 22.1407 18.7972 21.7945C18.4476 21.4483 18.2727 21.0183 18.2727 20.5046V1.80923ZM32.8909 0C33.4098 0 33.844 0.173105 34.1937 0.519316C34.5433 0.865527 34.7182 1.2955 34.7182 1.80923V21.7108C34.7182 21.8895 34.6618 22.0346 34.549 22.1463C34.4362 22.258 34.2896 22.3138 34.1091 22.3138H32.8909C32.7104 22.3138 32.5638 22.258 32.451 22.1463C32.3382 22.0346 32.2818 21.8895 32.2818 21.7108V14.4738C32.2818 14.2952 32.2254 14.15 32.1126 14.0383C31.9998 13.9266 31.8532 13.8708 31.6727 13.8708H28.0182C28.537 13.8708 28.9713 14.0439 29.321 14.3901C29.6706 14.7363 29.8454 15.1663 29.8454 15.68V21.7108C29.8454 21.8895 29.789 22.0346 29.6763 22.1463C29.5635 22.258 29.4168 22.3138 29.2364 22.3138H28.0182C27.8377 22.3138 27.6911 22.258 27.5783 22.1463C27.4655 22.0346 27.4091 21.8895 27.4091 21.7108V1.80923C27.4091 1.2955 27.5839 0.865527 27.9336 0.519316C28.2832 0.173105 28.7175 0 29.2364 0H32.8909ZM32.2818 3.01538C32.2818 2.83669 32.2254 2.69151 32.1126 2.57983C31.9998 2.46815 31.8532 2.41231 31.6727 2.41231H28.0182C28.537 2.41231 28.9713 2.58541 29.321 2.93162C29.6706 3.27783 29.8454 3.70781 29.8454 4.22154V10.8554C29.8454 11.0341 29.9018 11.1793 30.0146 11.2909C30.1274 11.4026 30.2741 11.4585 30.4545 11.4585H31.6727C31.8532 11.4585 31.9998 11.4026 32.1126 11.2909C32.2254 11.1793 32.2818 11.0341 32.2818 10.8554V3.01538ZM36.5454 0.603077C36.5454 0.424388 36.6018 0.279203 36.7146 0.167522C36.8274 0.0558411 36.9741 0 37.1545 0H40.8091C41.3279 0 41.7622 0.173105 42.1119 0.519316C42.4615 0.865527 42.6363 1.2955 42.6363 1.80923C42.6363 1.2955 42.8112 0.865527 43.1608 0.519316C43.5105 0.173105 43.9448 0 44.4636 0H46.9C47.4188 0 47.8531 0.173105 48.2028 0.519316C48.5524 0.865527 48.7273 1.2955 48.7273 1.80923V21.7108C48.7273 21.8895 48.6709 22.0346 48.5581 22.1463C48.4453 22.258 48.2986 22.3138 48.1182 22.3138H46.9C46.7195 22.3138 46.5729 22.258 46.4601 22.1463C46.3473 22.0346 46.2909 21.8895 46.2909 21.7108V3.01538C46.2909 2.83669 46.2345 2.69151 46.1217 2.57983C46.0089 2.46815 45.8623 2.41231 45.6818 2.41231H42.0273C42.5461 2.41231 42.9804 2.58541 43.33 2.93162C43.6797 3.27783 43.8545 3.70781 43.8545 4.22154V21.7108C43.8545 21.8895 43.7981 22.0346 43.6853 22.1463C43.5725 22.258 43.4259 22.3138 43.2454 22.3138H42.0273C41.8468 22.3138 41.7002 22.258 41.5874 22.1463C41.4746 22.0346 41.4182 21.8895 41.4182 21.7108V3.01538C41.4182 2.83669 41.3618 2.69151 41.249 2.57983C41.1362 2.46815 40.9895 2.41231 40.8091 2.41231H37.1545C37.6734 2.41231 38.1076 2.58541 38.4573 2.93162C38.807 3.27783 38.9818 3.70781 38.9818 4.22154V21.7108C38.9818 21.8895 38.9254 22.0346 38.8126 22.1463C38.6998 22.258 38.5532 22.3138 38.3727 22.3138H37.1545C36.9741 22.3138 36.8274 22.258 36.7146 22.1463C36.6018 22.0346 36.5454 21.8895 36.5454 21.7108V0.603077ZM52.3818 22.3138C51.8629 22.3138 51.4287 22.1407 51.079 21.7945C50.7294 21.4483 50.5545 21.0183 50.5545 20.5046V1.80923C50.5545 1.2955 50.7294 0.865527 51.079 0.519316C51.4287 0.173105 51.8629 0 52.3818 0H57.2545C57.435 0 57.5816 0.0558411 57.6944 0.167522C57.8072 0.279203 57.8636 0.424388 57.8636 0.603077V1.80923C57.8636 1.98792 57.8072 2.13311 57.6944 2.24479C57.5816 2.35647 57.435 2.41231 57.2545 2.41231H51.1636C51.6825 2.41231 52.1167 2.58541 52.4664 2.93162C52.8161 3.27783 52.9909 3.70781 52.9909 4.22154V10.8554C52.9909 11.0341 53.0473 11.1793 53.1601 11.2909C53.2729 11.4026 53.4195 11.4585 53.6 11.4585H54.8182C54.9986 11.4585 55.1453 11.5143 55.2581 11.626C55.3709 11.7377 55.4273 11.8828 55.4273 12.0615V13.2677C55.4273 13.4464 55.3709 13.5916 55.2581 13.7032C55.1453 13.8149 54.9986 13.8708 54.8182 13.8708H51.1636C51.6825 13.8708 52.1167 14.0439 52.4664 14.3901C52.8161 14.7363 52.9909 15.1663 52.9909 15.68V19.2985C52.9909 19.4771 53.0473 19.6223 53.1601 19.734C53.2729 19.8457 53.4195 19.9015 53.6 19.9015H57.2545C57.435 19.9015 57.5816 19.9574 57.6944 20.0691C57.8072 20.1807 57.8636 20.3259 57.8636 20.5046V21.7108C57.8636 21.8895 57.8072 22.0346 57.6944 22.1463C57.5816 22.258 57.435 22.3138 57.2545 22.3138H52.3818ZM65.1727 0C65.6916 0 66.1258 0.173105 66.4755 0.519316C66.8251 0.865527 67 1.2955 67 1.80923V4.22154C67 4.40023 66.9436 4.54541 66.8308 4.65709C66.718 4.76877 66.5714 4.82462 66.3909 4.82462H65.1727C64.9922 4.82462 64.8456 4.76877 64.7328 4.65709C64.62 4.54541 64.5636 4.40023 64.5636 4.22154V3.01538C64.5636 2.83669 64.5072 2.69151 64.3944 2.57983C64.2816 2.46815 64.135 2.41231 63.9545 2.41231H60.3C60.8188 2.41231 61.2531 2.58541 61.6028 2.93162C61.9524 3.27783 62.1273 3.70781 62.1273 4.22154V8.44308C62.1273 8.62177 62.1837 8.76695 62.2964 8.87863C62.4092 8.99031 62.5559 9.04615 62.7363 9.04615H65.1727C65.6916 9.04615 66.1258 9.21926 66.4755 9.56547C66.8251 9.91168 67 10.3417 67 10.8554V20.5046C67 21.0183 66.8251 21.4483 66.4755 21.7945C66.1258 22.1407 65.6916 22.3138 65.1727 22.3138H61.5182C60.9993 22.3138 60.5651 22.1407 60.2154 21.7945C59.8657 21.4483 59.6909 21.0183 59.6909 20.5046V18.0923C59.6909 17.9136 59.7473 17.7684 59.8601 17.6567C59.9729 17.5451 60.1195 17.4892 60.3 17.4892H61.5182C61.6986 17.4892 61.8453 17.5451 61.9581 17.6567C62.0709 17.7684 62.1273 17.9136 62.1273 18.0923V19.2985C62.1273 19.4771 62.1837 19.6223 62.2964 19.734C62.4092 19.8457 62.5559 19.9015 62.7363 19.9015H63.9545C64.135 19.9015 64.2816 19.8457 64.3944 19.734C64.5072 19.6223 64.5636 19.4771 64.5636 19.2985V12.0615C64.5636 11.8828 64.5072 11.7377 64.3944 11.626C64.2816 11.5143 64.135 11.4585 63.9545 11.4585H61.5182C60.9993 11.4585 60.5651 11.2854 60.2154 10.9391C59.8657 10.5929 59.6909 10.163 59.6909 9.64923V1.80923C59.6909 1.2955 59.8657 0.865527 60.2154 0.519316C60.5651 0.173105 60.9993 0 61.5182 0H65.1727Z" fill="#0072B7"/>
</svg>
