<svg width="48" height="48" viewBox="0 0 48 48" fill="none" xmlns="http://www.w3.org/2000/svg">
<path d="M12 44C10.9 44 9.95834 43.6084 9.175 42.825C8.39166 42.0416 8 41.1 8 40V20C8 18.9 8.39166 17.9583 9.175 17.175C9.95834 16.3917 10.9 16 12 16H14V12C14 9.23334 14.975 6.875 16.925 4.925C18.875 2.975 21.2334 2 24 2C26.7666 2 29.125 2.975 31.075 4.925C33.025 6.875 34 9.23334 34 12V16H36C37.1 16 38.0416 16.3917 38.825 17.175C39.6084 17.9583 40 18.9 40 20V40C40 41.1 39.6084 42.0416 38.825 42.825C38.0416 43.6084 37.1 44 36 44H12ZM12 40H36V20H12V40ZM24 34C25.1 34 26.0416 33.6084 26.825 32.825C27.6084 32.0416 28 31.1 28 30C28 28.9 27.6084 27.9584 26.825 27.175C26.0416 26.3916 25.1 26 24 26C22.9 26 21.9584 26.3916 21.175 27.175C20.3916 27.9584 20 28.9 20 30C20 31.1 20.3916 32.0416 21.175 32.825C21.9584 33.6084 22.9 34 24 34ZM18 16H30V12C30 10.3333 29.4166 8.91666 28.25 7.75C27.0834 6.58334 25.6666 6 24 6C22.3334 6 20.9166 6.58334 19.75 7.75C18.5833 8.91666 18 10.3333 18 12V16Z" fill="#0072B7"/>
</svg>
