<svg width="48" height="48" viewBox="0 0 48 48" fill="none" xmlns="http://www.w3.org/2000/svg">
<path d="M19.4998 42.8C20.2664 43.5666 21.2164 43.95 22.3498 43.95C23.4832 43.95 24.4332 43.5666 25.1998 42.8L42.7998 25.2C43.1664 24.8334 43.4582 24.4 43.6748 23.9C43.8914 23.4 43.9998 22.8666 43.9998 22.3V8C43.9998 6.9 43.6082 5.95834 42.8248 5.175C42.0414 4.39166 41.0998 4 39.9998 4H25.6998C25.1332 4 24.5998 4.10834 24.0998 4.325C23.5998 4.54166 23.1664 4.83334 22.7998 5.2L5.1998 22.85C4.43314 23.6166 4.0498 24.5584 4.0498 25.675C4.0498 26.7916 4.43314 27.7334 5.1998 28.5L19.4998 42.8ZM22.3498 40L8.0498 25.7L25.6998 8H39.9998V22.3L22.3498 40ZM34.9998 16C34.1664 16 33.4582 15.7083 32.8748 15.125C32.2914 14.5417 31.9998 13.8333 31.9998 13C31.9998 12.1667 32.2914 11.4583 32.8748 10.875C33.4582 10.2917 34.1664 10 34.9998 10C35.8332 10 36.5414 10.2917 37.1248 10.875C37.7082 11.4583 37.9998 12.1667 37.9998 13C37.9998 13.8333 37.7082 14.5417 37.1248 15.125C36.5414 15.7083 35.8332 16 34.9998 16Z" fill="#0072B7"/>
</svg>
