<svg width="48" height="48" viewBox="0 0 48 48" fill="none" xmlns="http://www.w3.org/2000/svg">
<path d="M12 40C10.3333 40 8.91666 39.4166 7.75 38.25C6.58334 37.0834 6 35.6666 6 34H2V12C2 10.9 2.39166 9.95834 3.175 9.175C3.95834 8.39166 4.9 8 6 8H34V16H40L46 24V34H42C42 35.6666 41.4166 37.0834 40.25 38.25C39.0834 39.4166 37.6666 40 36 40C34.3334 40 32.9166 39.4166 31.75 38.25C30.5834 37.0834 30 35.6666 30 34H18C18 35.6666 17.4167 37.0834 16.25 38.25C15.0833 39.4166 13.6667 40 12 40ZM12 36C12.5667 36 13.0417 35.8084 13.425 35.425C13.8083 35.0416 14 34.5666 14 34C14 33.4334 13.8083 32.9584 13.425 32.575C13.0417 32.1916 12.5667 32 12 32C11.4333 32 10.9583 32.1916 10.575 32.575C10.1917 32.9584 10 33.4334 10 34C10 34.5666 10.1917 35.0416 10.575 35.425C10.9583 35.8084 11.4333 36 12 36ZM6 30H7.6C8.16666 29.4 8.81666 28.9166 9.55 28.55C10.2833 28.1834 11.1 28 12 28C12.9 28 13.7167 28.1834 14.45 28.55C15.1833 28.9166 15.8333 29.4 16.4 30H30V12H6V30ZM36 36C36.5666 36 37.0416 35.8084 37.425 35.425C37.8084 35.0416 38 34.5666 38 34C38 33.4334 37.8084 32.9584 37.425 32.575C37.0416 32.1916 36.5666 32 36 32C35.4334 32 34.9584 32.1916 34.575 32.575C34.1916 32.9584 34 33.4334 34 34C34 34.5666 34.1916 35.0416 34.575 35.425C34.9584 35.8084 35.4334 36 36 36ZM34 26H42.5L38 20H34V26Z" fill="#0072B7"/>
</svg>
